<svg width="40" height="40" viewBox="0 0 40 40" fill="none" xmlns="http://www.w3.org/2000/svg">
<circle cx="20" cy="20" r="20" fill="#EBE7FD"/>
<path d="M29.1696 10.0601C28.4528 9.93665 27.7269 9.8731 26.9996 9.87012C24.518 9.86809 22.0881 10.5797 19.9996 11.9201C17.9057 10.5973 15.4762 9.90315 12.9996 9.92012C12.2722 9.9231 11.5464 9.98665 10.8296 10.1101C10.5948 10.1506 10.3822 10.2736 10.23 10.4569C10.0778 10.6402 9.99613 10.8719 9.9996 11.1101V23.1101C9.99745 23.2571 10.0277 23.4027 10.0882 23.5366C10.1488 23.6705 10.2381 23.7894 10.3498 23.8849C10.4615 23.9803 10.5929 24.05 10.7346 24.089C10.8763 24.1279 11.0248 24.1351 11.1696 24.1101C12.6026 23.862 14.0708 23.9032 15.4877 24.2312C16.9045 24.5592 18.2414 25.1675 19.4196 26.0201L19.5396 26.0901H19.6496C19.7605 26.1363 19.8795 26.1601 19.9996 26.1601C20.1197 26.1601 20.2387 26.1363 20.3496 26.0901H20.4596L20.5796 26.0201C21.7496 25.1484 23.0826 24.5205 24.4997 24.1735C25.9169 23.8265 27.3893 23.7675 28.8296 24.0001C28.9744 24.0251 29.1229 24.0179 29.2646 23.979C29.4063 23.94 29.5377 23.8703 29.6494 23.7749C29.7611 23.6794 29.8504 23.5605 29.9109 23.4266C29.9715 23.2927 30.0017 23.1471 29.9996 23.0001V11.0001C29.9892 10.7723 29.9012 10.5548 29.7502 10.3839C29.5993 10.2129 29.3944 10.0987 29.1696 10.0601ZM18.9996 23.3501C17.1495 22.3768 15.0901 21.8688 12.9996 21.8701C12.6696 21.8701 12.3396 21.8701 11.9996 21.8701V11.8701C12.3327 11.8509 12.6665 11.8509 12.9996 11.8701C15.133 11.8678 17.2198 12.4938 18.9996 13.6701V23.3501ZM27.9996 21.9101C27.6596 21.9101 27.3296 21.9101 26.9996 21.9101C24.9091 21.9088 22.8497 22.4168 20.9996 23.3901V13.6701C22.7794 12.4938 24.8662 11.8678 26.9996 11.8701C27.3327 11.8509 27.6665 11.8509 27.9996 11.8701V21.9101ZM29.1696 26.0601C28.4528 25.9367 27.7269 25.8731 26.9996 25.8701C24.518 25.8681 22.0881 26.5797 19.9996 27.9201C17.9111 26.5797 15.4812 25.8681 12.9996 25.8701C12.2722 25.8731 11.5464 25.9367 10.8296 26.0601C10.6994 26.0808 10.5746 26.127 10.4624 26.196C10.3501 26.2651 10.2526 26.3557 10.1755 26.4625C10.0983 26.5694 10.0431 26.6905 10.0129 26.8188C9.98272 26.9471 9.9782 27.0801 9.9996 27.2101C10.0504 27.4698 10.2021 27.6988 10.4214 27.8468C10.6407 27.9949 10.9097 28.05 11.1696 28.0001C12.6026 27.752 14.0708 27.7932 15.4877 28.1212C16.9045 28.4492 18.2414 29.0575 19.4196 29.9101C19.589 30.0307 19.7917 30.0955 19.9996 30.0955C20.2075 30.0955 20.4102 30.0307 20.5796 29.9101C21.7578 29.0575 23.0947 28.4492 24.5115 28.1212C25.9284 27.7932 27.3966 27.752 28.8296 28.0001C29.0895 28.05 29.3585 27.9949 29.5778 27.8468C29.7971 27.6988 29.9488 27.4698 29.9996 27.2101C30.021 27.0801 30.0165 26.9471 29.9863 26.8188C29.9561 26.6905 29.9009 26.5694 29.8237 26.4625C29.7466 26.3557 29.6491 26.2651 29.5368 26.196C29.4246 26.127 29.2998 26.0808 29.1696 26.0601Z" fill="#4E32C4"/>
</svg>
