<svg width="40" height="40" viewBox="0 0 40 40" fill="none" xmlns="http://www.w3.org/2000/svg">
<circle cx="20" cy="20" r="20" fill="#EBE7FD"/>
<path d="M20 23C21.6569 23 23 21.6569 23 20C23 18.3431 21.6569 17 20 17C18.3431 17 17 18.3431 17 20C17 21.6569 18.3431 23 20 23Z" fill="#4E32C4"/>
<path d="M25 11.5H15C12 11.5 10 13 10 16.5V17V23V23.5C10 27 12 28.5 15 28.5H25C28 28.5 30 27 30 23.5V23V17V16.5C30 13 28 11.5 25 11.5ZM15 27C15 24.18 14.09 23.14 11.5 23.02V23V17V16.98C14.09 16.86 15 15.82 15 13H25C25 15.82 25.91 16.86 28.5 16.98V17V23V23.02C25.91 23.14 25 24.18 25 27H15Z" fill="#4E32C4"/>
</svg>
