<svg width="40" height="40" viewBox="0 0 40 40" fill="none" xmlns="http://www.w3.org/2000/svg">
<circle cx="20" cy="20" r="20" fill="#EBE7FD"/>
<path d="M26 14.0002H22.41L24.71 11.7102C24.8032 11.6169 24.8772 11.5063 24.9277 11.3844C24.9781 11.2626 25.0041 11.132 25.0041 11.0002C25.0041 10.8683 24.9781 10.7378 24.9277 10.6159C24.8772 10.4941 24.8032 10.3834 24.71 10.2902C24.6168 10.1969 24.5061 10.123 24.3842 10.0725C24.2624 10.0221 24.1319 9.99609 24 9.99609C23.7337 9.99609 23.4783 10.1019 23.29 10.2902L20 13.5402L18.83 11.5402C18.7643 11.4259 18.6768 11.3257 18.5724 11.2453C18.468 11.1649 18.3488 11.1058 18.2216 11.0714C18.0944 11.0371 17.9617 11.0281 17.831 11.0451C17.7003 11.062 17.5743 11.1045 17.46 11.1702C17.3457 11.2358 17.2456 11.3234 17.1651 11.4278C17.0847 11.5321 17.0256 11.6513 16.9913 11.7786C16.9569 11.9058 16.9479 12.0385 16.9649 12.1692C16.9818 12.2999 17.0243 12.4259 17.09 12.5402L18 14.0002H14C13.2044 14.0002 12.4413 14.3163 11.8787 14.8789C11.3161 15.4415 11 16.2045 11 17.0002V25.0002C11 25.7958 11.3161 26.5589 11.8787 27.1215C12.4413 27.6841 13.2044 28.0002 14 28.0002V29.0002C14 29.2654 14.1054 29.5198 14.2929 29.7073C14.4804 29.8948 14.7348 30.0002 15 30.0002C15.2652 30.0002 15.5196 29.8948 15.7071 29.7073C15.8946 29.5198 16 29.2654 16 29.0002V28.0002H24V29.0002C24 29.2654 24.1054 29.5198 24.2929 29.7073C24.4804 29.8948 24.7348 30.0002 25 30.0002C25.2652 30.0002 25.5196 29.8948 25.7071 29.7073C25.8946 29.5198 26 29.2654 26 29.0002V28.0002C26.7956 28.0002 27.5587 27.6841 28.1213 27.1215C28.6839 26.5589 29 25.7958 29 25.0002V17.0002C29 16.2045 28.6839 15.4415 28.1213 14.8789C27.5587 14.3163 26.7956 14.0002 26 14.0002ZM27 25.0002C27 25.2654 26.8946 25.5198 26.7071 25.7073C26.5196 25.8948 26.2652 26.0002 26 26.0002H14C13.7348 26.0002 13.4804 25.8948 13.2929 25.7073C13.1054 25.5198 13 25.2654 13 25.0002V17.0002C13 16.735 13.1054 16.4806 13.2929 16.2931C13.4804 16.1055 13.7348 16.0002 14 16.0002H26C26.2652 16.0002 26.5196 16.1055 26.7071 16.2931C26.8946 16.4806 27 16.735 27 17.0002V25.0002Z" fill="#4E32C4"/>
</svg>
