<svg width="32" height="24" viewBox="0 0 32 24" fill="none" xmlns="http://www.w3.org/2000/svg">
<rect x="0.774705" y="0.758591" width="30.7461" height="22.6149" rx="3.68445" fill="#D3C5C2" stroke="black" stroke-width="0.7623"/>
<path d="M0.393555 8.25439H10.0494" stroke="black" stroke-width="0.5082"/>
<path d="M22.2461 23.2461L21.7379 21.73L21.2297 20.2139V18.6979V17.1818L21.7379 15.6231L21.2297 13.1389V11.6229V10.1068L22.0767 8.10173" stroke="black" stroke-width="0.5082"/>
<path d="M9.54122 23.7544L10.0494 22.2281L10.5576 20.7019V19.1757L10.5576 17.6494L10.0494 15.6232L10.5576 13.5794V12.0532V10.5269L10.0494 8.00019" stroke="black" stroke-width="0.5082"/>
<path d="M9.54122 0.885808L10.5576 2.98591L10.5576 4.56139V6.13687L10.0494 8.24658" stroke="black" stroke-width="0.5082"/>
<path d="M21.8452 8.25439H31.902" stroke="black" stroke-width="0.5082"/>
<path d="M0.393555 15.3691H10.309" stroke="black" stroke-width="0.5082"/>
<path d="M10.5576 20.1968L13.0986 20.705H16.1478L18.6888 20.705L21.2298 20.1968" stroke="black" stroke-width="0.5082"/>
<path d="M10.5576 3.93457L13.0986 3.42637L16.1478 3.42637L18.6888 3.42637L21.2298 3.93457" stroke="black" stroke-width="0.5082"/>
<path d="M23.2625 0.885571L22.2461 2.41017L21.2297 3.93477V4.95117" stroke="black" stroke-width="0.5082"/>
<line x1="21.738" y1="15.3689" x2="31.902" y2="15.3689" stroke="black" stroke-width="0.5082"/>
</svg>
