<svg width="40" height="40" viewBox="0 0 40 40" fill="none" xmlns="http://www.w3.org/2000/svg">
<circle cx="20" cy="20" r="20" fill="#EBE7FD"/>
<path d="M21.5 24.75H18.5C15.75 24.75 13.75 22.75 13.75 20V14.92C13.75 13.45 14.95 12.25 16.42 12.25H23.59C25.06 12.25 26.26 13.45 26.26 14.92V20C26.25 22.75 24.25 24.75 21.5 24.75ZM16.42 13.75C15.78 13.75 15.25 14.27 15.25 14.92V20C15.25 21.62 16.25 23.25 18.5 23.25H21.5C23.75 23.25 24.75 21.62 24.75 20V14.92C24.75 14.28 24.23 13.75 23.58 13.75H16.42Z" fill="#4E32C4"/>
<path d="M17.5 13.75C17.09 13.75 16.75 13.41 16.75 13V10C16.75 9.59 17.09 9.25 17.5 9.25C17.91 9.25 18.25 9.59 18.25 10V13C18.25 13.41 17.91 13.75 17.5 13.75Z" fill="#4E32C4"/>
<path d="M22.5 13.75C22.09 13.75 21.75 13.41 21.75 13V10C21.75 9.59 22.09 9.25 22.5 9.25C22.91 9.25 23.25 9.59 23.25 10V13C23.25 13.41 22.91 13.75 22.5 13.75Z" fill="#4E32C4"/>
<path d="M20 30.75C19.59 30.75 19.25 30.41 19.25 30V24C19.25 23.59 19.59 23.25 20 23.25C20.41 23.25 20.75 23.59 20.75 24V30C20.75 30.41 20.41 30.75 20 30.75Z" fill="#4E32C4"/>
</svg>
