<svg width="40" height="40" viewBox="0 0 40 40" fill="none" xmlns="http://www.w3.org/2000/svg">
<circle cx="20" cy="20" r="20" fill="#EBE7FD"/>
<path d="M12.4702 20.1701C12.2802 20.1701 12.0902 20.1001 11.9402 19.9501L10.7302 18.7401L9.52017 19.9501C9.23017 20.2401 8.75018 20.2401 8.46018 19.9501C8.17018 19.6601 8.17018 19.1801 8.46018 18.8901L10.2002 17.1501C10.4902 16.8601 10.9702 16.8601 11.2602 17.1501L13.0002 18.8901C13.2902 19.1801 13.2902 19.6601 13.0002 19.9501C12.8602 20.1001 12.6602 20.1701 12.4702 20.1701Z" fill="#4E32C4"/>
<path d="M29.26 23.0696C29.07 23.0696 28.88 22.9995 28.73 22.8495L26.99 21.1095C26.7 20.8195 26.7 20.3395 26.99 20.0495C27.28 19.7595 27.76 19.7595 28.05 20.0495L29.26 21.2596L30.47 20.0495C30.76 19.7595 31.24 19.7595 31.53 20.0495C31.82 20.3395 31.82 20.8195 31.53 21.1095L29.79 22.8495C29.65 22.9895 29.45 23.0696 29.26 23.0696Z" fill="#4E32C4"/>
<path d="M29.2601 23.07C28.8501 23.07 28.5101 22.73 28.5101 22.32V20C28.5101 15.31 24.6901 11.49 20.0001 11.49C17.4101 11.49 14.9901 12.65 13.3601 14.68C13.1001 15 12.6301 15.05 12.3101 14.8C11.9901 14.54 11.9301 14.07 12.1901 13.75C14.1001 11.36 16.9501 10 20.0001 10C25.5201 10 30.0101 14.49 30.0101 20.01V22.33C30.0101 22.73 29.6801 23.07 29.2601 23.07Z" fill="#4E32C4"/>
<path d="M20.0002 30.0097C14.4802 30.0097 9.99023 25.5197 9.99023 19.9997V17.6797C9.99023 17.2697 10.3302 16.9297 10.7402 16.9297C11.1502 16.9297 11.4902 17.2697 11.4902 17.6797V19.9997C11.4902 24.6897 15.3102 28.5097 20.0002 28.5097C22.5902 28.5097 25.0102 27.3497 26.6402 25.3197C26.9002 24.9997 27.3702 24.9397 27.6902 25.1997C28.0102 25.4597 28.0702 25.9297 27.8102 26.2497C25.9002 28.6397 23.0502 30.0097 20.0002 30.0097Z" fill="#4E32C4"/>
<path d="M21.38 20.75H17C16.59 20.75 16.25 20.41 16.25 20V16.5C16.25 16.09 16.59 15.75 17 15.75H21.38C22.71 15.75 23.88 16.92 23.88 18.25C23.88 19.63 22.75 20.75 21.38 20.75ZM17.75 19.25H21.37C21.92 19.25 22.37 18.8 22.37 18.25C22.37 17.8 21.92 17.25 21.37 17.25H17.75V19.25Z" fill="#4E32C4"/>
<path d="M22 24.25H17C16.59 24.25 16.25 23.91 16.25 23.5V20C16.25 19.59 16.59 19.25 17 19.25H22C23.52 19.25 24.75 20.37 24.75 21.75C24.75 23.13 23.52 24.25 22 24.25ZM17.75 22.75H22C22.69 22.75 23.25 22.3 23.25 21.75C23.25 21.2 22.69 20.75 22 20.75H17.75V22.75Z" fill="#4E32C4"/>
<path d="M19.7998 26C19.3898 26 19.0498 25.66 19.0498 25.25V23.5C19.0498 23.09 19.3898 22.75 19.7998 22.75C20.2098 22.75 20.5498 23.09 20.5498 23.5V25.25C20.5498 25.66 20.2098 26 19.7998 26Z" fill="#4E32C4"/>
<path d="M19.7998 17.25C19.3898 17.25 19.0498 16.91 19.0498 16.5V14.75C19.0498 14.34 19.3898 14 19.7998 14C20.2098 14 20.5498 14.34 20.5498 14.75V16.5C20.5498 16.91 20.2098 17.25 19.7998 17.25Z" fill="#4E32C4"/>
</svg>
