<svg width="40" height="40" viewBox="0 0 40 40" fill="none" xmlns="http://www.w3.org/2000/svg">
<circle cx="20" cy="20" r="20" fill="#EBE7FD"/>
<path fill-rule="evenodd" clip-rule="evenodd" d="M21.5 28H18.5V26H21.5V28Z" fill="#4E32C4"/>
<path fill-rule="evenodd" clip-rule="evenodd" d="M16 10C16 9.44772 16.4477 9 17 9H23C23.5523 9 24 9.44772 24 10V10.5C24 12.1569 22.6569 13.5 21 13.5H19C17.3431 13.5 16 12.1569 16 10.5V10ZM18.1338 11C18.3067 11.2989 18.6299 11.5 19 11.5H21C21.3701 11.5 21.6933 11.2989 21.8662 11H18.1338Z" fill="#4E32C4"/>
<path fill-rule="evenodd" clip-rule="evenodd" d="M13 12C13 10.3431 14.3431 9 16 9H24C25.6569 9 27 10.3431 27 12V28C27 29.6569 25.6569 31 24 31H16C14.3431 31 13 29.6569 13 28V12ZM16 11C15.4477 11 15 11.4477 15 12V28C15 28.5523 15.4477 29 16 29H24C24.5523 29 25 28.5523 25 28V12C25 11.4477 24.5523 11 24 11H16Z" fill="#4E32C4"/>
</svg>
