<svg width="46" height="41" viewBox="0 0 46 41" fill="none" xmlns="http://www.w3.org/2000/svg">
<g clip-path="url(#clip0_5957_466)">
<path d="M29.3748 31.498H17.4009V9.98079H29.3748V31.498Z" fill="#F1511B"/>
<path d="M18.1615 20.7398C18.1615 16.3745 20.2054 12.4868 23.3882 9.98112C21.0605 8.14865 18.1233 7.05534 14.9312 7.05534C7.37395 7.05534 1.24756 13.182 1.24756 20.7398C1.24756 28.2973 7.37395 34.4243 14.9312 34.4243C18.1233 34.4243 21.0605 33.331 23.3882 31.4984C20.2054 28.9927 18.1615 25.1049 18.1615 20.7398Z" fill="#E71B25"/>
<path d="M45.5288 20.7398C45.5288 28.2973 39.4023 34.4243 31.8453 34.4243C28.6532 34.4243 25.7161 33.331 23.3884 31.4984C26.5711 28.9927 28.6148 25.1049 28.6148 20.7398C28.6148 16.3745 26.5711 12.4868 23.3884 9.98112C25.7161 8.14865 28.6532 7.05534 31.8453 7.05534C39.4023 7.05534 45.5288 13.182 45.5288 20.7398Z" fill="#F79410"/>
<path d="M45.1011 29.2192V28.6881H44.9623L44.8027 29.0534L44.6434 28.6881H44.5046V29.2192H44.6023V28.8188L44.7521 29.164H44.8536L45.0034 28.8178V29.2192H45.1011ZM44.2226 29.2192V28.7787H44.4005V28.6893H43.9478V28.7787H44.1257V29.2192H44.2226Z" fill="#231F20"/>
</g>
<defs>
<clipPath id="clip0_5957_466">
<rect width="45.738" height="40.656" fill="white" transform="translate(0.231201 0.213867)"/>
</clipPath>
</defs>
</svg>
