<svg width="40" height="40" viewBox="0 0 40 40" fill="none" xmlns="http://www.w3.org/2000/svg">
<circle cx="20" cy="20" r="20" fill="#EBE7FD"/>
<path d="M19.5002 30.7498C18.7102 30.7498 17.9602 30.3398 17.4402 29.6398L16.4202 28.2998C16.2102 28.0198 15.9302 27.8598 15.6302 27.8398C15.3402 27.8198 15.0303 27.9598 14.7803 28.2098C13.9203 29.1298 13.0802 29.5698 12.2902 29.5498C11.7502 29.5298 11.2802 29.2898 10.9202 28.8498C10.8802 28.7998 10.8402 28.7298 10.8102 28.6598C10.4202 27.8198 10.2402 26.6798 10.2402 24.9698V15.0498C10.2402 13.3398 10.4202 12.2098 10.8102 11.3598C10.8402 11.2998 10.8702 11.2398 10.9202 11.1898C11.2702 10.7398 11.7403 10.4998 12.2803 10.4698C13.0803 10.4398 13.9303 10.8998 14.7703 11.7998C15.0203 12.0698 15.3202 12.1998 15.6202 12.1798C15.9202 12.1598 16.2002 11.9998 16.4102 11.7198L17.4302 10.3698C17.9502 9.66977 18.7002 9.25977 19.4902 9.25977C20.2802 9.25977 21.0302 9.66977 21.5502 10.3698L22.5602 11.7098C22.7702 11.9998 23.0602 12.1598 23.3702 12.1798C23.6602 12.1998 23.9702 12.0598 24.2202 11.7998C25.0402 10.9198 25.8502 10.4698 26.6302 10.4698C27.1902 10.4698 27.7103 10.7198 28.0703 11.1898C28.1103 11.2398 28.1502 11.2998 28.1802 11.3698C28.5702 12.2098 28.7502 13.3498 28.7502 15.0598V24.9798C28.7502 26.6898 28.5702 27.8198 28.1802 28.6698C28.1402 28.7598 28.0903 28.8398 28.0203 28.9098C27.7103 29.3098 27.2002 29.5598 26.6302 29.5598C25.8502 29.5598 25.0402 29.1098 24.2202 28.2298C23.9802 27.9698 23.6502 27.8298 23.3702 27.8498C23.0602 27.8698 22.7802 28.0298 22.5602 28.3198L21.5502 29.6598C21.0402 30.3398 20.2902 30.7498 19.5002 30.7498ZM15.5803 26.3298C15.6203 26.3298 15.6703 26.3298 15.7103 26.3298C16.4503 26.3698 17.1402 26.7598 17.6102 27.3898L18.6302 28.7398C19.1202 29.3998 19.8602 29.3998 20.3502 28.7498L21.3602 27.4098C21.8402 26.7698 22.5403 26.3898 23.2803 26.3498C24.0203 26.3098 24.7602 26.6198 25.3002 27.1998C26.0402 27.9898 26.4902 28.0498 26.6102 28.0498C26.6902 28.0498 26.7603 28.0298 26.8303 27.9698C27.1103 27.3398 27.2302 26.3898 27.2302 24.9698V15.0498C27.2302 13.6498 27.1003 12.6998 26.8303 12.0698C26.7503 11.9798 26.6702 11.9698 26.6102 11.9698C26.4902 11.9698 26.0402 12.0298 25.3002 12.8198C24.7602 13.3998 24.0203 13.7098 23.2803 13.6698C22.5303 13.6298 21.8302 13.2398 21.3502 12.6098L20.3403 11.2698C19.8503 10.6098 19.1102 10.6098 18.6202 11.2698L17.6002 12.6298C17.1302 13.2598 16.4403 13.6398 15.7003 13.6798C14.9603 13.7198 14.2202 13.4098 13.6802 12.8398C13.0702 12.1798 12.6003 11.9598 12.3403 11.9698C12.2803 11.9698 12.2102 11.9898 12.1302 12.0698C11.8602 12.6998 11.7302 13.6498 11.7302 15.0498V24.9698C11.7302 26.3798 11.8602 27.3298 12.1302 27.9598C12.2202 28.0398 12.2803 28.0498 12.3403 28.0598C12.5903 28.0698 13.0602 27.8498 13.6702 27.1998C14.2002 26.6298 14.8903 26.3298 15.5803 26.3298Z" fill="#4E32C4"/>
<path d="M24 19H16C15.59 19 15.25 18.66 15.25 18.25C15.25 17.84 15.59 17.5 16 17.5H24C24.41 17.5 24.75 17.84 24.75 18.25C24.75 18.66 24.41 19 24 19Z" fill="#4E32C4"/>
<path d="M22 22.5H16C15.59 22.5 15.25 22.16 15.25 21.75C15.25 21.34 15.59 21 16 21H22C22.41 21 22.75 21.34 22.75 21.75C22.75 22.16 22.41 22.5 22 22.5Z" fill="#4E32C4"/>
</svg>
