<svg width="40" height="40" viewBox="0 0 40 40" fill="none" xmlns="http://www.w3.org/2000/svg">
<circle cx="20" cy="20" r="20" fill="#EBE7FD"/>
<path fill-rule="evenodd" clip-rule="evenodd" d="M12.7647 27.9243C12.9759 29.4022 14.2416 30.5 15.7346 30.5H24.2654C25.7584 30.5 27.0241 29.4022 27.2353 27.9243L28.99 15.6414C29.031 15.3544 28.9454 15.0638 28.7555 14.8448C28.5655 14.6258 28.2899 14.5 28 14.5H12C11.7101 14.5 11.4345 14.6258 11.2446 14.8448C11.0546 15.0638 10.9691 15.3544 11.0101 15.6414L12.7647 27.9243ZM15.7346 28.5C15.2369 28.5 14.815 28.1341 14.7446 27.6414L13.153 16.5H26.847L25.2554 27.6414C25.185 28.1341 24.7631 28.5 24.2654 28.5H15.7346Z" fill="#4E32C4"/>
<path fill-rule="evenodd" clip-rule="evenodd" d="M15 14.5C15 11.7386 17.2386 9.5 20 9.5C22.7614 9.5 25 11.7386 25 14.5V15.5C25 16.0523 24.5523 16.5 24 16.5H16C15.4477 16.5 15 16.0523 15 15.5V14.5ZM20 11.5C18.3431 11.5 17 12.8431 17 14.5H23C23 12.8431 21.6569 11.5 20 11.5Z" fill="#4E32C4"/>
<path fill-rule="evenodd" clip-rule="evenodd" d="M15.5 19.5C15.5 21.9853 17.5147 24 20 24C22.4853 24 24.5 21.9853 24.5 19.5V19H22.5V19.5C22.5 20.8807 21.3807 22 20 22C18.6193 22 17.5 20.8807 17.5 19.5V19H15.5V19.5Z" fill="#4E32C4"/>
</svg>
