<svg width="40" height="40" viewBox="0 0 40 40" fill="none" xmlns="http://www.w3.org/2000/svg">
<circle cx="20" cy="20" r="20" fill="#EBE7FD"/>
<path d="M25 29.75H15C10.59 29.75 9.25 28.41 9.25 24V16C9.25 11.59 10.59 10.25 15 10.25H25C29.41 10.25 30.75 11.59 30.75 16V24C30.75 28.41 29.41 29.75 25 29.75ZM15 11.75C11.42 11.75 10.75 12.43 10.75 16V24C10.75 27.57 11.42 28.25 15 28.25H25C28.58 28.25 29.25 27.57 29.25 24V16C29.25 12.43 28.58 11.75 25 11.75H15Z" fill="#4E32C4"/>
<path d="M27 16.75H22C21.59 16.75 21.25 16.41 21.25 16C21.25 15.59 21.59 15.25 22 15.25H27C27.41 15.25 27.75 15.59 27.75 16C27.75 16.41 27.41 16.75 27 16.75Z" fill="#4E32C4"/>
<path d="M27 20.75H23C22.59 20.75 22.25 20.41 22.25 20C22.25 19.59 22.59 19.25 23 19.25H27C27.41 19.25 27.75 19.59 27.75 20C27.75 20.41 27.41 20.75 27 20.75Z" fill="#4E32C4"/>
<path d="M27 24.75H25C24.59 24.75 24.25 24.41 24.25 24C24.25 23.59 24.59 23.25 25 23.25H27C27.41 23.25 27.75 23.59 27.75 24C27.75 24.41 27.41 24.75 27 24.75Z" fill="#4E32C4"/>
<path d="M16.4999 20.0399C15.0899 20.0399 13.9399 18.8899 13.9399 17.4799C13.9399 16.0699 15.0899 14.9199 16.4999 14.9199C17.9099 14.9199 19.0599 16.0699 19.0599 17.4799C19.0599 18.8899 17.9099 20.0399 16.4999 20.0399ZM16.4999 16.4199C15.9199 16.4199 15.4399 16.8999 15.4399 17.4799C15.4399 18.0599 15.9199 18.5399 16.4999 18.5399C17.0799 18.5399 17.5599 18.0599 17.5599 17.4799C17.5599 16.8999 17.0799 16.4199 16.4999 16.4199Z" fill="#4E32C4"/>
<path d="M19.9999 25.0798C19.6199 25.0798 19.2899 24.7898 19.2499 24.3998C19.1399 23.3198 18.2699 22.4498 17.1799 22.3498C16.7199 22.3098 16.2599 22.3098 15.7999 22.3498C14.7099 22.4498 13.8399 23.3098 13.7299 24.3998C13.6899 24.8098 13.3199 25.1198 12.9099 25.0698C12.4999 25.0298 12.1999 24.6598 12.2399 24.2498C12.4199 22.4498 13.8499 21.0198 15.6599 20.8598C16.2099 20.8098 16.7699 20.8098 17.3199 20.8598C19.1199 21.0298 20.5599 22.4598 20.7399 24.2498C20.7799 24.6598 20.4799 25.0298 20.0699 25.0698C20.0499 25.0798 20.0199 25.0798 19.9999 25.0798Z" fill="#4E32C4"/>
</svg>
